HIERARCHY
ROOT Hips
{
	OFFSET 0.00000 0.00000 0.00000
	CHANNELS 6 Xposition Yposition Zposition Yrotation Zrotation Xrotation 
	JOINT Lumbar
	{
		OFFSET 0 0 0
		CHANNELS 3 Zrotation Xrotation Yrotation
		JOINT Neck
		{
			OFFSET 0.00 0.2701 0.00
			CHANNELS 3 Zrotation Xrotation Yrotation
			End Site
			{
				OFFSET 0.00 0.1379 0.00
			}
		}
		JOINT RightShoulder
		{
			OFFSET 0.0119 0.2289 0.1181
			CHANNELS 3 Zrotation Xrotation Yrotation
			JOINT RightElbow
			{
				OFFSET 0.00 -0.1475 0.00
				CHANNELS 2 Zrotation Yrotation
				JOINT RightWrist
				{
					OFFSET 0.00 -0.1605 0.00
					CHANNELS 2 Zrotation Xrotation
					End Site
					{
						OFFSET 0.0040 -0.1068 0.0006
					}
				}
			}
		}
		JOINT LeftShoulder
		{
			OFFSET 0.0119 0.2289 -0.1181
			CHANNELS 3 Zrotation Xrotation Yrotation
			JOINT LeftElbow
			{
				OFFSET 0.00 -0.1475 0.00
				CHANNELS 2 Zrotation Yrotation
				JOINT LeftWrist
				{
					OFFSET 0.00 -0.1605 0.00
					CHANNELS 2 Zrotation Xrotation
					End Site
					{
						OFFSET 0.0040 -0.1068 -0.0006
					}
				}
			}
		}
	}
	JOINT RightHip
	{
		OFFSET 0.0316 -0.0424 0.0458
		CHANNELS 3 Zrotation Xrotation Yrotation
		JOINT RightKnee
		{
			OFFSET 0.00 -0.2438 0.00
			CHANNELS 1 Zrotation
			JOINT RightAnkle
			{
				OFFSET 0.00 -0.2449 0.00
				CHANNELS 3 Zrotation Xrotation Yrotation
				End Site
				{
					OFFSET 0.1237 -0.0542 0.0051
				}
			}
		}
	}
	JOINT LeftHip
	{
		OFFSET 0.0316 -0.0424 -0.0458
		CHANNELS 3 Zrotation Xrotation Yrotation
		JOINT LeftKnee
		{
			OFFSET 0.00 -0.2438 0.00
			CHANNELS 1 Zrotation
			JOINT LeftAnkle
			{
				OFFSET 0.00 -0.2449 0.00
				CHANNELS 3 Zrotation Xrotation Yrotation
				End Site
				{
					OFFSET 0.1237 -0.0542 -0.0051
				}
			}
		}
	}
}
MOTION
Frames: 26
Frame Time: 0.02
0.33172 0.40326 0.30369 182.27197 0 4.11329 52.66613 -1.20079 -0.55338 -54.78396 8.38194 17.20492 80.6598 -40.75568 44.95875 9.62498 89.94653 1.90983 2.72313 73.29657 1.34358 -5.77866 5.33524 -80.94778 -1.37556 5.3855 80.33904 -2.79758 7.09704 -66.49798 -29.1381 -3.16312 3.98483 76.05837 1.44948 -1.17513 -62.86681 -31.03224 2.02526 0.51398
0.33179 0.40341 0.30366 182.24421 0 4.1593 52.84656 -1.10719 -0.27441 -54.99239 7.64613 15.86967 80.66578 -39.02741 43.05386 9.43045 89.55121 1.71178 2.67721 74.48206 2.93277 -6.71537 5.38362 -81.02691 -1.62084 5.64196 80.22864 -2.6856 7.17593 -65.98638 -28.71972 -3.06472 3.78901 75.99327 1.44672 -1.08301 -62.42166 -30.53916 1.95346 0.73182
0.33183 0.40357 0.30367 182.20023 0 4.19922 53.00271 -0.98827 -0.07872 -55.01015 6.90465 14.3732 80.52045 -37.08944 41.03088 9.25206 89.06466 1.50161 2.63181 75.52162 4.70732 -7.92179 5.45108 -81.14445 -1.9588 5.994 80.08812 -2.55527 7.23668 -65.38772 -28.23 -2.93828 3.51085 75.91088 1.43716 -1.02068 -61.87547 -29.952 1.86148 1.00999
0.33188 0.40373 0.30367 182.1646 0 4.23989 53.17121 -0.8807 0.1463 -55.10361 6.16938 12.95885 80.43406 -35.25481 39.07699 9.06793 88.63444 1.29984 2.58409 76.60073 6.3893 -9.01832 5.51715 -81.24538 -2.25478 6.29727 79.95792 -2.43299 7.30922 -64.81383 -27.78501 -2.8291 3.27963 75.83372 1.42729 -0.95452 -61.35366 -29.41906 1.78392 1.25021
0.33195 0.40388 0.30365 182.12493 0 4.28921 53.33471 -0.77322 0.40968 -55.25032 5.41065 11.49733 80.39538 -33.37263 37.0436 8.87523 88.14094 1.08417 2.5441 77.80865 8.11974 -10.06871 5.55395 -81.34372 -2.55146 6.62361 79.84128 -2.31166 7.36591 -64.30296 -27.28743 -2.70051 3.00789 75.76718 1.43215 -0.84602 -60.92303 -28.83636 1.68461 1.53599
0.33198 0.40405 0.30366 182.08992 0 4.3191 53.50281 -0.66023 0.57329 -55.23898 4.70446 10.10377 80.21953 -31.55051 35.15759 8.70514 87.75694 0.89557 2.48908 78.70698 9.78281 -11.26992 5.65444 -81.45612 -2.8669 6.92363 79.68976 -2.184 7.45295 -63.63843 -26.88235 -2.60605 2.80177 75.67487 1.40425 -0.83353 -60.2768 -28.33523 1.62522 1.74034
0.33191 0.40424 0.30372 182.07 0 4.29596 53.68755 -0.53255 0.47171 -54.82797 4.12151 8.88555 79.69575 -29.87704 33.65505 8.59085 87.70797 0.78053 2.38588 78.7931 11.28004 -12.90084 5.94144 -81.59899 -3.22724 7.13697 79.44633 -2.04435 7.61232 -62.58892 -26.75439 -2.60946 2.78856 75.51247 1.29154 -1.07604 -59.07911 -28.08564 1.68664 1.71066
0.33181 0.40444 0.30379 182.05554 0 4.25368 53.87795 -0.40127 0.27409 -54.26564 3.59691 7.75191 79.03984 -28.2854 32.31654 8.49953 87.77072 0.69415 2.26882 78.56946 12.68954 -14.65865 6.28889 -81.75428 -3.60023 7.31878 79.16966 -1.89878 7.80591 -61.38427 -26.72127 -2.64861 2.84555 75.32549 1.14539 -1.41476 -57.66453 -27.92102 1.788 1.59591
0.33173 0.40463 0.30385 182.03979 0 4.22062 54.06711 -0.27537 0.12652 -53.77735 3.06154 6.61385 78.44681 -26.70183 30.938 8.39964 87.77557 0.59755 2.16246 78.48062 14.09551 -16.30747 6.59874 -81.90323 -3.95721 7.50898 78.90995 -1.75531 7.99396 -60.23934 -26.64217 -2.6737 2.87607 75.15173 1.01191 -1.71151 -56.33699 -27.71558 1.86726 1.51621
0.33166 0.40483 0.30392 182.01877 0 4.18486 54.25018 -0.13278 -0.05119 -53.25846 2.45892 5.3254 77.83449 -24.91841 29.40737 8.29222 87.80682 0.48858 2.03752 78.41126 15.69237 -18.18569 6.95248 -82.0569 -4.36114 7.72775 78.64047 -1.61381 8.13844 -59.13807 -26.57298 -2.68928 2.88149 74.96818 0.88878 -2.00214 -55.05478 -27.51613 1.96205 1.45346
0.33155 0.40501 0.30398 182.00984 0 4.15061 54.44713 -0.02443 -0.18756 -52.77214 2.01088 4.37372 77.23564 -23.57512 28.23665 8.20593 87.81143 0.41245 1.94802 78.23076 16.86705 -19.60858 7.22835 -82.20262 -4.6686 7.87809 78.38493 -1.46689 8.38289 -57.90868 -26.50626 -2.73265 2.95604 74.80006 0.73636 -2.32768 -53.6277 -27.3256 2.0348 1.33496
0.33129 0.40513 0.30401 182.03658 0 4.12217 54.68508 -0.01183 -0.1885 -52.39413 1.97132 4.32138 76.68408 -23.41469 27.99909 8.17095 87.71057 0.41944 1.95944 77.80968 16.90689 -19.77725 7.27911 -82.32776 -4.71023 7.8482 78.1672 -1.308 8.88805 -56.37629 -26.42655 -2.85165 3.21215 74.67518 0.50994 -2.72911 -51.8562 -27.1398 2.03208 1.0785
0.331 0.40522 0.30402 182.0748 0 4.0965 54.93619 -0.034 -0.14371 -52.0589 2.08614 4.60783 76.15593 -23.69797 28.12261 8.15667 87.58052 0.45876 2.00708 77.29029 16.52205 -19.47587 7.24847 -82.4434 -4.65322 7.74988 77.96664 -1.14371 9.49411 -54.71843 -26.34573 -2.99601 3.53412 74.56779 0.25528 -3.16202 -49.94636 -26.96053 2.00673 0.76957
0.33074 0.40532 0.30404 182.10533 0 4.07154 55.17869 -0.04007 -0.118 -51.71682 2.133 4.74633 75.63191 -23.78715 28.09482 8.1337 87.46708 0.48362 2.03829 76.82232 16.32462 -19.36556 7.25191 -82.56037 -4.63849 7.68173 77.76392 -0.98088 10.05856 -53.10992 -26.26359 -3.12399 3.82152 74.45599 0.01467 -3.57793 -48.09882 -26.77792 1.99506 0.48739
0.33043 0.40543 0.30407 182.14604 0 4.03756 55.43232 -0.04686 -0.10289 -51.3147 2.17257 4.86181 75.03926 -23.84641 28.01842 8.10832 87.34269 0.50816 2.06878 76.31337 16.14832 -19.35381 7.26968 -82.69062 -4.63493 7.61639 77.53544 -0.82179 10.60601 -51.52796 -26.19255 -3.27404 4.13189 74.32832 -0.23148 -4.00707 -46.24637 -26.59902 1.97069 0.1896
0.3302 0.40551 0.30407 182.16874 0 4.02332 55.66601 -0.06096 -0.05358 -51.05164 2.26326 5.10522 74.59885 -24.07328 28.12724 8.09284 87.23356 0.54108 2.1097 75.87249 15.82772 -19.02501 7.2376 -82.79049 -4.58462 7.52941 77.36609 -0.65404 11.21273 -49.8634 -26.09672 -3.38327 4.4079 74.23827 -0.47329 -4.4168 -44.3737 -26.41379 1.96658 -0.08649
0.33018 0.40553 0.30402 182.13425 0 4.0626 55.83985 -0.08218 0.07973 -51.14745 2.45678 5.61355 74.55698 -24.64604 28.65567 8.09695 87.16609 0.58553 2.16913 75.62835 15.21756 -17.92137 7.08641 -82.81111 -4.42828 7.39885 77.34785 -0.46091 11.95436 -47.99843 -25.93408 -3.37706 4.5832 74.24761 -0.68771 -4.74636 -42.48417 -26.20084 2.02636 -0.2945
0.33024 0.40552 0.30396 182.08196 0 4.12177 55.99345 -0.1103 0.24626 -51.38514 2.69612 6.23929 74.6711 -25.37306 29.35758 8.11063 87.11566 0.63776 2.23808 75.46056 14.47663 -16.51711 6.8879 -82.80094 -4.22851 7.24914 77.39022 -0.25978 12.75192 -46.05613 -25.74584 -3.32826 4.71927 74.29457 -0.89796 -5.05715 -40.57941 -25.98228 2.10666 -0.47767
0.33028 0.40552 0.3039 182.04099 0 4.17217 56.15729 -0.13846 0.39753 -51.56841 2.91469 6.81477 74.72525 -26.03489 29.98199 8.12163 87.06213 0.6888 2.30371 75.26942 13.79231 -15.25899 6.71154 -82.80335 -4.04917 7.10868 77.41017 -0.06421 13.52741 -44.15193 -25.56791 -3.29622 4.86631 74.32434 -1.11585 -5.38994 -38.67911 -25.77179 2.17577 -0.66861
0.33027 0.40552 0.30383 181.98729 0 4.22162 56.31714 -0.15497 0.55091 -51.71105 3.13889 7.39009 74.73451 -26.69263 30.61477 8.12654 86.98884 0.7314 2.36651 75.02666 13.10372 -13.94353 6.52927 -82.81157 -3.86318 6.96343 77.40888 0.13954 14.29569 -42.23042 -25.39546 -3.27517 5.04505 74.3543 -1.31151 -5.67191 -36.78341 -25.53911 2.25197 -0.8759
0.33036 0.40551 0.30378 181.95508 0 4.27761 56.48039 -0.19624 0.70736 -51.97092 3.35966 7.98788 74.87338 -27.38831 31.26493 8.14585 86.96011 0.7926 2.43678 74.91097 12.40016 -12.68324 6.34959 -82.8003 -3.68236 6.82459 77.46621 0.32827 15.08673 -40.32868 -25.20567 -3.22185 5.14708 74.39357 -1.55084 -6.04872 -34.87736 -25.3502 2.3186 -1.04304
0.3307 0.40547 0.30373 181.99213 0 4.34775 56.65701 -0.31008 0.86209 -52.52308 3.56425 8.6285 75.33644 -28.16106 31.93362 8.20488 87.05897 0.90675 2.52708 75.1262 11.67532 -11.6422 6.18494 -82.74467 -3.52393 6.70789 77.66971 0.4718 15.96226 -38.49899 -24.97282 -3.08047 5.05091 74.44168 -1.92259 -6.74453 -32.94023 -25.2922 2.35345 -1.10055
0.33112 0.40541 0.30369 182.05041 0 4.42356 56.83754 -0.44744 1.01858 -53.18626 3.76245 9.28413 75.92264 -28.96254 32.60995 8.27759 87.20067 1.03856 2.62412 75.4663 10.94438 -10.67073 6.02564 -82.67027 -3.3732 6.59882 77.93066 0.60027 16.85147 -36.69373 -24.72368 -2.90956 4.87793 74.49975 -2.33635 -7.52656 -30.99617 -25.27693 2.37809 -1.11897
0.33151 0.40536 0.30365 182.09517 0 4.49614 57.01729 -0.56983 1.17587 -53.79788 3.95949 9.92498 76.45069 -29.74207 33.27192 8.34234 87.31702 1.15979 2.71672 75.75205 10.22609 -9.674 5.86666 -82.6031 -3.22106 6.4866 78.16526 0.73676 17.71095 -34.8777 -24.48287 -2.7584 4.73701 74.55749 -2.72351 -8.23439 -29.05872 -25.23616 2.40778 -1.1584
0.3319 0.40531 0.30361 182.15535 0 4.57225 57.19351 -0.71007 1.32907 -54.42434 4.17425 10.60396 76.99747 -30.56491 33.9845 8.41454 87.4584 1.29197 2.81531 76.03495 9.46089 -8.6393 5.69423 -82.53991 -3.05841 6.37182 78.40117 0.86849 18.67246 -33.05363 -24.2371 -2.57966 4.60635 74.59658 -3.14184 -9.08905 -27.10162 -25.22025 2.4366 -1.18403
0.33229 0.40526 0.30358 182.18909 0 4.642 57.37653 -0.81921 1.48892 -55.03788 4.35136 11.20522 77.52737 -31.30217 34.59325 8.47465 87.55806 1.40561 2.9031 76.34659 8.79419 -7.70462 5.55189 -82.46493 -2.92021 6.26509 78.64952 1.00653 19.42304 -31.25799 -23.99832 -2.45113 4.43713 74.67923 -3.50576 -9.65906 -25.18957 -25.16355 2.46436 -1.22853
